<?xml version="1.0"?>
<svg xmlns="http://www.w3.org/2000/svg" xmlns:xlink="http://www.w3.org/1999/xlink" version="1.1" id="Capa_1" x="0px" y="0px" viewBox="0 0 512.012 512.012" style="enable-background:new 0 0 512.012 512.012;" xml:space="preserve" width="512px" height="512px"><g><g transform="translate(0 -1)">
	<g>
		<g>
			<path d="M503.474,495.945h-3.465L344.566,210.266c-0.217-0.299-0.454-0.582-0.711-0.848c-0.336-0.503-0.725-0.968-1.161-1.386     c-0.407-0.336-0.845-0.631-1.309-0.883l-0.044-0.03v-9.84c0-4.713-3.821-8.533-8.533-8.533c-4.713,0-8.533,3.82-8.533,8.533     v8.533H179.208v-8.533c0-4.713-3.82-8.533-8.533-8.533s-8.533,3.82-8.533,8.533v14.948L11.937,495.945H8.541     c-4.713,0-8.533,3.82-8.533,8.533s3.82,8.533,8.533,8.533h494.933c4.713,0,8.533-3.821,8.533-8.533     S508.187,495.945,503.474,495.945z M162.141,495.945h-42.668l15.359-20.479c2.828-3.769,2.065-9.118-1.704-11.946     c-3.769-2.828-9.118-2.065-11.946,1.704l-10.242,13.656v-25.602c0-4.713-3.82-8.533-8.533-8.533s-8.533,3.821-8.533,8.533v25.602     l-10.242-13.656c-2.828-3.769-8.176-4.532-11.946-1.704c-3.769,2.828-4.532,8.177-1.704,11.946l15.359,20.479H31.247     l130.894-247.244V495.945z M256.007,495.945l15.359-20.479c2.828-3.769,2.065-9.118-1.704-11.946     c-3.769-2.828-9.118-2.065-11.946,1.704l-10.242,13.656v-25.602c0-4.713-3.82-8.533-8.533-8.533s-8.533,3.821-8.533,8.533v25.602     l-10.242-13.656c-2.828-3.769-8.177-4.532-11.946-1.704c-3.769,2.828-4.532,8.177-1.704,11.946l15.359,20.479h-42.668V248.701     l130.894,247.244H256.007z M409.607,495.945l15.359-20.479c2.828-3.769,2.065-9.118-1.704-11.946     c-3.769-2.828-9.118-2.065-11.946,1.704l-10.242,13.656v-25.602c0-4.713-3.821-8.533-8.533-8.533     c-4.713,0-8.533,3.821-8.533,8.533v25.602l-10.242-13.656c-2.828-3.769-8.176-4.532-11.946-1.704     c-3.769,2.828-4.532,8.177-1.704,11.946l15.359,20.479h-46.064L184.849,222.879h147.157l148.581,273.067H409.607z" data-original="#000000" class="active-path" data-old_color="#000000" fill="#FFFFFF"/>
			<path d="M324.274,274.079h-68.267c-3.013-0.001-5.802,1.586-7.34,4.177c-1.538,2.591-1.595,5.8-0.151,8.444l51.2,93.867     c1.494,2.742,4.369,4.448,7.492,4.446h68.267c3.013,0.001,5.802-1.586,7.34-4.177c1.538-2.591,1.595-5.8,0.151-8.444     l-51.2-93.867C330.272,275.782,327.397,274.076,324.274,274.079z M312.274,367.945l-41.892-76.8h48.825l41.892,76.8H312.274z" data-original="#000000" class="active-path" data-old_color="#000000" fill="#FFFFFF"/>
			<path d="M393.499,183.353c-0.31,0.181-0.607,0.383-0.89,0.605c-1.385,0.611-2.49,1.72-3.095,3.108     c-0.202,0.259-0.388,0.53-0.557,0.812l-0.012,0.058c-0.372,0.932-0.577,1.922-0.605,2.924c-0.005,0.115-0.068,0.229-0.068,0.343     c-0.001,0.085,0.047,0.171,0.049,0.256c0.018,1.03,0.223,2.048,0.605,3.005l0.014,0.068c0.389,0.893,0.931,1.712,1.6,2.421     c0.169,0.185,0.372,0.323,0.558,0.493c0.589,0.541,1.251,0.996,1.968,1.35c0.148,0.073,0.244,0.208,0.398,0.273     c10.498,4.474,21.796,6.768,33.208,6.743c47.128,0,85.333-38.205,85.333-85.333s-38.205-85.333-85.333-85.333     c-11.412-0.026-22.71,2.268-33.208,6.741c-0.378,0.216-0.737,0.463-1.075,0.737c-0.577,0.304-1.117,0.674-1.608,1.103     c-0.494,0.55-0.913,1.164-1.246,1.824c-0.218,0.277-0.417,0.569-0.596,0.873l-0.014,0.068c-0.382,0.957-0.587,1.975-0.605,3.005     c-0.003,0.085-0.05,0.171-0.049,0.256c0,0.115,0.063,0.228,0.068,0.343c0.028,1.003,0.233,1.993,0.605,2.924l0.012,0.058     c0.169,0.282,0.355,0.553,0.557,0.812c0.342,0.682,0.775,1.314,1.289,1.879c0.546,0.487,1.153,0.9,1.807,1.229     c0.283,0.221,0.58,0.423,0.89,0.605c25.278,10.669,41.708,35.438,41.708,62.875C435.208,147.915,418.777,172.684,393.499,183.353     z M452.274,120.478c0-26.617-12.483-51.693-33.72-67.738c25.178-3.025,49.957,8.16,64.343,29.043     c14.386,20.884,16.006,48.022,4.207,70.469c-11.799,22.447-35.071,36.501-60.43,36.493c-2.715-0.016-5.427-0.193-8.121-0.529     C439.791,172.172,452.274,147.096,452.274,120.478z" data-original="#000000" class="active-path" data-old_color="#000000" fill="#FFFFFF"/>
			<path d="M34.141,146.079h179.2c17.771-0.002,32.567-13.637,34.019-31.348c1.452-17.711-10.928-33.574-28.461-36.469     c6.83-32.347-12.092-64.575-43.667-74.373c-31.575-9.798-65.417,6.055-78.1,36.586C83.764,26.982,63.567,22.906,46.011,30.158     S17.023,54.551,17.074,73.545c0.004,2.829,0.277,5.652,0.817,8.429c-13.739,7.429-20.676,23.24-16.838,38.38     C4.891,135.494,18.523,146.092,34.141,146.079z M30.183,95.408c2.386-0.572,4.411-2.143,5.558-4.312     c1.147-2.169,1.305-4.727,0.434-7.021c-3.936-10.263-1.891-21.861,5.318-30.159s18.407-11.944,29.12-9.48     s19.193,10.634,22.054,21.248c1.119,4.075,5.052,6.717,9.248,6.212c4.195-0.505,7.39-4.004,7.51-8.228     c0.542-18.81,12.275-35.475,29.8-42.329c17.526-6.854,37.451-2.569,50.61,10.883c13.159,13.452,17.003,33.467,9.765,50.837     c-1.098,2.634-0.807,5.642,0.775,8.017s4.246,3.802,7.1,3.804h5.867c9.426,0,17.067,7.641,17.067,17.067     s-7.641,17.067-17.067,17.067h-179.2c-8.649,0.018-15.938-6.449-16.95-15.039C16.179,105.384,21.766,97.4,30.183,95.408z" data-original="#000000" class="active-path" data-old_color="#000000" fill="#FFFFFF"/>
		</g>
	</g>
</g></g> </svg>
